<svg xmlns="http://www.w3.org/2000/svg" width="600" height="360" style="background:#1a1a2e">
<text x="240" y="25" font-size="16" fill="#e0e0e0" font-family="monospace">SageGPT-Nano Architecture</text>
<rect x="150" y="50" width="300" height="40" fill="#2d5a27"/>
<text x="220" y="75" font-size="12" fill="#e0e0e0" font-family="monospace">Embedding (64d)</text>
<line x1="300" y1="90" x2="300" y2="105" stroke="#555" stroke-width="2"/>
<rect x="100" y="100" width="400" height="70" fill="#1a3a5c"/>
<text x="110" y="115" font-size="11" fill="#aaccee" font-family="monospace">Layer 0</text>
<rect x="120" y="120" width="160" height="20" fill="#3a5a8c"/>
<text x="130" y="135" font-size="10" fill="#e0e0e0" font-family="monospace">MHA (2h)</text>
<rect x="300" y="120" width="180" height="20" fill="#5a3a8c"/>
<text x="310" y="135" font-size="10" fill="#e0e0e0" font-family="monospace">FFN (256)</text>
<rect x="120" y="145" width="360" height="15" fill="#2a4a3a"/>
<text x="200" y="156" font-size="9" fill="#88aa88" font-family="monospace">RMSNorm + Residual</text>
<line x1="300" y1="165" x2="300" y2="185" stroke="#555" stroke-width="2"/>
<rect x="100" y="180" width="400" height="70" fill="#1a3a5c"/>
<text x="110" y="195" font-size="11" fill="#aaccee" font-family="monospace">Layer 1</text>
<rect x="120" y="200" width="160" height="20" fill="#3a5a8c"/>
<text x="130" y="215" font-size="10" fill="#e0e0e0" font-family="monospace">MHA (2h)</text>
<rect x="300" y="200" width="180" height="20" fill="#5a3a8c"/>
<text x="310" y="215" font-size="10" fill="#e0e0e0" font-family="monospace">FFN (256)</text>
<rect x="120" y="225" width="360" height="15" fill="#2a4a3a"/>
<text x="200" y="236" font-size="9" fill="#88aa88" font-family="monospace">RMSNorm + Residual</text>
<line x1="300" y1="245" x2="300" y2="265" stroke="#555" stroke-width="2"/>
<rect x="150" y="260" width="300" height="30" fill="#5a2727"/>
<text x="200" y="280" font-size="12" fill="#e0e0e0" font-family="monospace">RMSNorm + LM Head</text>
</svg>
