<svg xmlns="http://www.w3.org/2000/svg" width="800" height="300" style="background:#1a1a2e">
<text x="320" y="25" font-size="14" fill="#e0e0e0" font-family="monospace">Learning Rate Schedule (cosine)</text>
<rect x="60" y="60" width="680" height="180" fill="#16213e"/>
<polyline points="60,240 66,240 73,240 80,240 87,222 94,222 100,222 107,204 114,204 121,204 128,186 134,186 141,186 148,186 155,168 162,168 168,168 175,150 182,150 189,150 196,132 202,132 209,132 216,132 223,114 230,114 236,114 243,96 250,96 257,96 264,78 270,78 277,78 284,78 291,60 298,60 304,60 311,61 318,61 325,61 332,64 338,64 345,64 352,64 359,69 366,69 372,69 379,76 386,76 393,76 400,85 406,85 413,85 420,85 427,95 434,95 440,95 447,107 454,107 461,107 468,120 474,120 481,120 488,120 495,133 502,133 508,133 515,147 522,147 529,147 536,160 542,160 549,160 556,160 563,173 570,173 576,173 583,186 590,186 597,186 604,198 610,198 617,198 624,198 631,208 638,208 644,208 651,217 658,217 665,217 672,224 678,224 685,224 692,224 699,229 706,229 712,229 719,232 726,232 733,232" fill="none" stroke="#ffd700" stroke-width="2"/>
<text x="60" y="295" font-size="10" fill="#8888aa" font-family="monospace">0</text>
<text x="710" y="295" font-size="10" fill="#8888aa" font-family="monospace">30</text>
<text x="5" y="70" font-size="10" fill="#8888aa" font-family="monospace">0.0003</text>
</svg>
